<svg width="37" height="38" viewBox="0 0 37 38" fill="none" xmlns="http://www.w3.org/2000/svg">
<path d="M20.7747 24.6008C20.3251 25.0554 19.5963 25.0554 19.1468 24.6008L14.0783 19.475C13.6288 19.0204 13.6288 18.2833 14.0783 17.8287C14.5278 17.3741 15.2567 17.3741 15.7062 17.8287L20.7747 22.9545C21.2242 23.4091 21.2242 24.1462 20.7747 24.6008Z" fill="#373C4C"/>
<path d="M20.7747 12.6825C21.2242 13.1371 21.2242 13.8742 20.7747 14.3288L15.7062 19.4546C15.2567 19.9092 14.5279 19.9092 14.0783 19.4546C13.6288 19 13.6288 18.2629 14.0783 17.8083L19.1468 12.6825C19.5963 12.2279 20.3251 12.2279 20.7747 12.6825Z" fill="#373C4C"/>
<rect x="0.5" y="0.5" width="35.8532" height="36.0595" stroke="#373C4C"/>
</svg>
