<svg width="24" height="24" viewBox="0 0 24 24" fill="none" xmlns="http://www.w3.org/2000/svg">
<circle cx="12" cy="12" r="12" fill="#F4F6FA"/>
<mask id="mask0" mask-type="alpha" maskUnits="userSpaceOnUse" x="5" y="12" width="14" height="7">
<rect x="5" y="12" width="14" height="7" fill="#C4C4C4"/>
</mask>
<g mask="url(#mask0)">
<mask id="path-3-inside-1" fill="white">
<path d="M19 19C19 18.0807 18.8189 17.1705 18.4672 16.3212C18.1154 15.4719 17.5998 14.7003 16.9497 14.0503C16.2997 13.4002 15.5281 12.8846 14.6788 12.5328C13.8295 12.1811 12.9193 12 12 12C11.0807 12 10.1705 12.1811 9.32122 12.5328C8.47194 12.8846 7.70026 13.4002 7.05025 14.0503C6.40024 14.7003 5.88463 15.4719 5.53284 16.3212C5.18106 17.1705 5 18.0807 5 19L12 19H19Z"/>
</mask>
<path d="M19 19C19 18.0807 18.8189 17.1705 18.4672 16.3212C18.1154 15.4719 17.5998 14.7003 16.9497 14.0503C16.2997 13.4002 15.5281 12.8846 14.6788 12.5328C13.8295 12.1811 12.9193 12 12 12C11.0807 12 10.1705 12.1811 9.32122 12.5328C8.47194 12.8846 7.70026 13.4002 7.05025 14.0503C6.40024 14.7003 5.88463 15.4719 5.53284 16.3212C5.18106 17.1705 5 18.0807 5 19L12 19H19Z" stroke="#373C4C" stroke-width="4" mask="url(#path-3-inside-1)"/>
</g>
<circle cx="12" cy="9" r="4" stroke="#373C4C" stroke-width="2"/>
</svg>
