<svg width="21" height="17" viewBox="0 0 21 17" fill="none" xmlns="http://www.w3.org/2000/svg">
<path d="M18.7382 4.03125V2.01562L10.7156 7.03125L2.6931 2.01562V4.03125L10.7156 9L18.7382 4.03125ZM18.7382 0C19.2699 0 19.7234 0.203125 20.0987 0.609375C20.5053 1.01562 20.7086 1.48438 20.7086 2.01562V14.0156C20.7086 14.5469 20.5053 15.0156 20.0987 15.4219C19.7234 15.8281 19.2699 16.0312 18.7382 16.0312H2.6931C2.1614 16.0312 1.69224 15.8281 1.28564 15.4219C0.910318 15.0156 0.722656 14.5469 0.722656 14.0156V2.01562C0.722656 1.48438 0.910318 1.01562 1.28564 0.609375C1.69224 0.203125 2.1614 0 2.6931 0H18.7382Z" fill="#666666"/>
</svg>
