<svg width="25" height="24" viewBox="0 0 25 24" fill="none" xmlns="http://www.w3.org/2000/svg">
<path fill-rule="evenodd" clip-rule="evenodd" d="M12.5172 0C5.88408 0 0.506836 5.37258 0.506836 12C0.506836 18.6274 5.88408 24 12.5172 24C19.1504 24 24.5276 18.6274 24.5276 12C24.5276 5.37258 19.1504 0 12.5172 0ZM9.87657 5.63877C10.5598 5.6077 10.7782 5.6001 12.5178 5.6001H12.5158C14.256 5.6001 14.4735 5.6077 15.1568 5.63877C15.8387 5.66997 16.3045 5.77783 16.7128 5.93611C17.1346 6.09944 17.4909 6.31811 17.8472 6.67412C18.2035 7.02986 18.4224 7.38694 18.5865 7.80788C18.744 8.21482 18.8521 8.6799 18.8841 9.36125C18.9148 10.0439 18.9228 10.2621 18.9228 12.0002C18.9228 13.7384 18.9148 13.956 18.8841 14.6387C18.8521 15.3198 18.744 15.785 18.5865 16.1921C18.4224 16.6129 18.2035 16.97 17.8472 17.3257C17.4913 17.6817 17.1344 17.9009 16.7132 18.0644C16.3057 18.2227 15.8397 18.3305 15.1577 18.3617C14.4745 18.3928 14.2568 18.4004 12.517 18.4004C10.7775 18.4004 10.5593 18.3928 9.87604 18.3617C9.19424 18.3305 8.72863 18.2227 8.32107 18.0644C7.90004 17.9009 7.54265 17.6817 7.18674 17.3257C6.83056 16.97 6.6117 16.6129 6.44796 16.1919C6.28969 15.785 6.18173 15.3199 6.15036 14.6386C6.1194 13.9559 6.11166 13.7384 6.11166 12.0002C6.11166 10.2621 6.11967 10.0438 6.15023 9.36112C6.18092 8.68003 6.28902 8.21482 6.44783 7.80775C6.61197 7.38694 6.83083 7.02986 7.18714 6.67412C7.54319 6.31825 7.90057 6.09958 8.32187 5.93611C8.72916 5.77783 9.19464 5.66997 9.87657 5.63877Z" fill="#D2D6E1"/>
<path fill-rule="evenodd" clip-rule="evenodd" d="M11.9432 6.75355C12.0548 6.75338 12.1748 6.75343 12.3043 6.75349L12.5178 6.75355C14.2281 6.75355 14.4308 6.75969 15.1062 6.79035C15.7308 6.81889 16.0697 6.92315 16.2955 7.01075C16.5945 7.12675 16.8076 7.26541 17.0316 7.48941C17.2558 7.7134 17.3946 7.92673 17.511 8.2254C17.5987 8.45073 17.7032 8.78939 17.7316 9.41338C17.7623 10.088 17.769 10.2907 17.769 11.9987C17.769 13.7066 17.7623 13.9093 17.7316 14.584C17.703 15.208 17.5987 15.5466 17.511 15.7719C17.3949 16.0706 17.2558 16.2833 17.0316 16.5071C16.8074 16.7311 16.5946 16.8698 16.2955 16.9858C16.07 17.0738 15.7308 17.1778 15.1062 17.2063C14.431 17.237 14.2281 17.2437 12.5178 17.2437C10.8074 17.2437 10.6047 17.237 9.92941 17.2063C9.30486 17.1775 8.9659 17.0733 8.73997 16.9857C8.44104 16.8697 8.22752 16.731 8.00332 16.507C7.77912 16.283 7.64034 16.0702 7.52397 15.7714C7.43629 15.5461 7.3318 15.2074 7.30337 14.5834C7.27268 13.9088 7.26654 13.7061 7.26654 11.9971C7.26654 10.288 7.27268 10.0864 7.30337 9.41178C7.33193 8.78779 7.43629 8.44913 7.52397 8.22353C7.64007 7.92487 7.77912 7.71154 8.00332 7.48754C8.22752 7.26354 8.44104 7.12488 8.73997 7.00862C8.96576 6.92062 9.30486 6.81662 9.92941 6.78795C10.5203 6.76129 10.7493 6.75329 11.9432 6.75195V6.75355ZM15.9375 7.81618C15.5129 7.81618 15.1684 8.15971 15.1684 8.58374C15.1684 9.00764 15.5129 9.35156 15.9375 9.35156C16.3621 9.35156 16.7066 9.00764 16.7066 8.58374C16.7066 8.15984 16.3621 7.81592 15.9375 7.81592V7.81618ZM9.2283 12.0001C9.2283 10.185 10.7011 8.71345 12.5177 8.71338C14.3344 8.71338 15.8069 10.185 15.8069 12.0001C15.8069 13.8152 14.3345 15.2861 12.5179 15.2861C10.7012 15.2861 9.2283 13.8152 9.2283 12.0001Z" fill="#D2D6E1"/>
<path d="M12.5178 9.8667C13.697 9.8667 14.653 10.8218 14.653 12C14.653 13.1781 13.697 14.1333 12.5178 14.1333C11.3385 14.1333 10.3826 13.1781 10.3826 12C10.3826 10.8218 11.3385 9.8667 12.5178 9.8667Z" fill="#D2D6E1"/>
</svg>
