<svg width="25" height="24" viewBox="0 0 25 24" fill="none" xmlns="http://www.w3.org/2000/svg">
<path d="M10.7119 10.7812C11.2119 11.25 11.8057 11.4844 12.4932 11.4844C13.1807 11.4844 13.7588 11.25 14.2275 10.7812C14.7275 10.2812 14.9775 9.6875 14.9775 9C14.9775 8.3125 14.7275 7.73438 14.2275 7.26562C13.7588 6.76562 13.1807 6.51562 12.4932 6.51562C11.8057 6.51562 11.2119 6.76562 10.7119 7.26562C10.2432 7.73438 10.0088 8.3125 10.0088 9C10.0088 9.6875 10.2432 10.2812 10.7119 10.7812ZM7.52441 4.07812C8.89941 2.70312 10.5557 2.01562 12.4932 2.01562C14.4307 2.01562 16.0713 2.70312 17.415 4.07812C18.79 5.42188 19.4775 7.0625 19.4775 9C19.4775 9.96875 19.2275 11.0781 18.7275 12.3281C18.2588 13.5781 17.6807 14.75 16.9932 15.8438C16.3057 16.9375 15.6182 17.9688 14.9307 18.9375C14.2744 19.875 13.7119 20.625 13.2432 21.1875L12.4932 21.9844C12.3057 21.7656 12.0557 21.4844 11.7432 21.1406C11.4307 20.7656 10.8682 20.0469 10.0557 18.9844C9.24316 17.8906 8.52441 16.8438 7.89941 15.8438C7.30566 14.8125 6.75879 13.6562 6.25879 12.375C5.75879 11.0938 5.50879 9.96875 5.50879 9C5.50879 7.0625 6.18066 5.42188 7.52441 4.07812Z" fill="#666666"/>
</svg>
