<svg width="136" height="44" viewBox="0 0 136 44" fill="none" xmlns="http://www.w3.org/2000/svg">
<path d="M5.07002 11.1404C5.65002 8.66036 6.51002 7.10036 7.65002 6.45036C8.81002 5.79036 10.77 5.79036 13.54 6.44036L34.26 11.3604C37.02 12.0104 38.77 12.9004 39.54 14.0204C40.25 15.1204 40.32 16.9104 39.74 19.3604L36.39 33.4904C35.81 35.9204 34.93 37.4804 33.74 38.1504C32.56 38.8104 30.61 38.8204 27.9 38.1704L7.17002 33.2604C4.41002 32.6004 2.66002 31.7204 1.92002 30.6004C1.19002 29.5304 1.12002 27.7504 1.72002 25.2604L5.07002 11.1404ZM7.96002 28.0204L29.57 33.1404L33.56 16.3404L11.94 11.2104L7.96002 28.0204Z" fill="#2D365B" fill-opacity="0.709804"/>
<path d="M1.19001 17.79C0.770008 15.14 0.980008 13.28 1.83001 12.2C2.69001 11.09 4.60001 10.31 7.55001 9.83995L29.68 6.33995C32.62 5.87995 34.69 6.03995 35.87 6.81995C37.01 7.60995 37.79 9.31995 38.2 11.94L40.59 27.02C41 29.62 40.76 31.48 39.88 32.61C39 33.73 37.1 34.51 34.21 34.97L12.08 38.47C9.12001 38.93 7.07001 38.77 5.90001 37.98C4.77001 37.23 3.99001 35.52 3.57001 32.87L1.19001 17.79ZM10.75 33.05L33.82 29.41L30.99 11.47L7.91001 15.12L10.75 33.05Z" fill="#269ED9" fill-opacity="0.729412"/>
<path d="M4.93001 35.1304C2.58001 33.8504 1.23001 32.5504 0.890013 31.2204C0.540013 29.8604 1.07001 27.8704 2.50001 25.2404L13.19 5.5504C14.61 2.9304 15.99 1.3904 17.34 0.930399C18.66 0.510399 20.48 0.920399 22.81 2.1904L36.23 9.4804C38.55 10.7304 39.88 12.0504 40.24 13.4404C40.59 14.8204 40.06 16.8004 38.66 19.3804L27.97 39.0704C26.54 41.7004 25.16 43.2304 23.83 43.6804C22.54 44.1104 20.71 43.6904 18.35 42.4104L4.93001 35.1304ZM22.86 36.8304L34.01 16.3004L18.05 7.6304L6.90001 28.1704L22.86 36.8304Z" fill="#A0D2B9" fill-opacity="0.729412"/>
<path d="M62.7 26.61L67.48 18.55H69.37L74.24 26.61H72.02L71.01 24.83H65.67L64.66 26.61H62.7ZM107.16 18.55L111.81 26.61H109.68L106.41 20.78L103.31 26.61H101.43L105.87 18.55H107.16ZM76.4 26.61V18.55H78.27V21.67H84.12V18.55H86.01V26.61H84.12V23.14H78.27V26.61H76.4ZM51 26.61V18.55H52.87V21.67H58.73V18.55H60.61V26.61H58.73V23.14H52.87V26.61H51ZM125.48 26.61V18.55H127.46V21.81L132.17 18.55H135.02L129.44 22.28L135.65 26.61H132.53L127.46 22.97V26.61H125.48ZM114.11 26.6V18.54H122.77V19.97H116.09V21.72H119.98V23.11H116.09V25.09H122.86V26.6H114.11ZM88.85 20.45C88.85 19.71 88.99 19.21 89.27 18.95C89.56 18.68 90.12 18.55 90.95 18.55H97.19C98.02 18.55 98.58 18.68 98.87 18.95C99.15 19.21 99.29 19.72 99.29 20.45V24.7C99.29 25.43 99.14 25.93 98.85 26.2C98.56 26.47 98 26.61 97.19 26.61H90.95C90.12 26.61 89.56 26.47 89.27 26.2C88.99 25.95 88.85 25.45 88.85 24.7V20.45ZM90.82 25.06H97.32V20.01H90.82V25.06ZM66.51 23.37H70.21L68.32 20.02L66.51 23.37Z" fill="#2D365B"/>
</svg>
