<svg width="25" height="24" viewBox="0 0 25 24" fill="none" xmlns="http://www.w3.org/2000/svg">
<path d="M15.4932 12C15.4932 11.1875 15.1963 10.4844 14.6025 9.89062C14.0088 9.29688 13.3057 9 12.4932 9V6.98438C13.8682 6.98438 15.04 7.48438 16.0088 8.48438C17.0088 9.45312 17.5088 10.625 17.5088 12H15.4932ZM19.4775 12C19.4775 10.0625 18.79 8.42188 17.415 7.07812C16.0713 5.70312 14.4307 5.01562 12.4932 5.01562V3C14.9932 3 17.1182 3.875 18.8682 5.625C20.6182 7.375 21.4932 9.5 21.4932 12H19.4775ZM20.5088 15.5156C20.79 15.5156 21.0244 15.6094 21.2119 15.7969C21.3994 15.9844 21.4932 16.2188 21.4932 16.5V20.0156C21.4932 20.2969 21.3994 20.5312 21.2119 20.7188C21.0244 20.9062 20.79 21 20.5088 21C15.8213 21 11.8057 19.3438 8.46191 16.0312C5.14941 12.6875 3.49316 8.67188 3.49316 3.98438C3.49316 3.70312 3.58691 3.46875 3.77441 3.28125C3.96191 3.09375 4.19629 3 4.47754 3H7.99316C8.27441 3 8.50879 3.09375 8.69629 3.28125C8.88379 3.46875 8.97754 3.70312 8.97754 3.98438C8.97754 5.23438 9.16504 6.42188 9.54004 7.54688C9.66504 7.95312 9.58691 8.29688 9.30566 8.57812L7.10254 10.7812C8.57129 13.6562 10.7744 15.8594 13.7119 17.3906L15.915 15.1875C16.1963 14.9062 16.54 14.8281 16.9463 14.9531C18.0713 15.3281 19.2588 15.5156 20.5088 15.5156Z" fill="#666666"/>
</svg>
