<svg width="10" height="6" viewBox="0 0 10 6" fill="none" xmlns="http://www.w3.org/2000/svg">
<path d="M9.7294 0.274463C10.0902 0.640397 10.0902 1.23369 9.7294 1.59963L5.66138 5.72555C5.30058 6.09148 4.71561 6.09148 4.35481 5.72555C3.99401 5.35962 3.99401 4.76632 4.35481 4.40039L8.42283 0.274464C8.78363 -0.0914694 9.3686 -0.0914701 9.7294 0.274463Z" fill="#373D4F"/>
<path d="M0.270598 0.27445C0.631397 -0.0914833 1.21637 -0.0914834 1.57716 0.27445L5.64519 4.40037C6.00599 4.76631 6.00599 5.3596 5.64519 5.72554C5.28439 6.09147 4.69942 6.09147 4.33862 5.72554L0.270599 1.59961C-0.0901992 1.23368 -0.0901999 0.640384 0.270598 0.27445Z" fill="#373D4F"/>
</svg>
