<svg width="25" height="24" viewBox="0 0 25 24" fill="none" xmlns="http://www.w3.org/2000/svg">
<path d="M12.0046 24H12.0162C18.6462 24 24.0208 18.63 24.0208 12.0058V12C24.0208 5.3726 18.6436 0 12.0104 0C5.37726 0 0 5.3726 0 12V12.0058C0 18.63 5.37462 24 12.0046 24Z" fill="#D2D6E1"/>
<path d="M16.3852 12.3435C15.9695 11.8664 15.3625 11.5504 14.7109 11.3956V11.3317C15.1765 11.1187 15.5827 10.7851 15.8557 10.3318C16.1286 9.87877 16.2723 9.36149 16.2723 8.78023C16.2723 8.27901 16.1771 7.83624 15.9794 7.45241C15.7815 7.06858 15.4844 6.7619 15.0838 6.53261C14.7134 6.31938 14.3178 6.17298 13.8949 6.10638C13.4717 6.03953 12.8507 6 12.0297 6H8.00781V18H12.5554C13.3313 18 13.9707 17.8867 14.4739 17.7374C14.977 17.5881 15.4388 17.3179 15.8591 16.9662C16.2145 16.6729 16.4974 16.2924 16.7077 15.8446C16.9178 15.3966 17.0156 14.8719 17.0156 14.2801C17.0156 13.4695 16.8006 12.8207 16.3852 12.3435ZM10.8008 8.18197H11.0687C11.5691 8.18197 11.9458 8.19323 12.1989 8.20114C12.4514 8.20904 12.6705 8.25936 12.8558 8.34465C13.0508 8.43546 13.1948 8.58377 13.2874 8.78622C13.3801 8.98892 13.4264 9.18706 13.4264 9.37922C13.4264 9.64037 13.3839 9.87014 13.2987 10.0673C13.2137 10.2647 13.0585 10.4195 12.8333 10.5314C12.6278 10.633 12.429 10.7113 12.2362 10.7219C12.0434 10.7327 11.707 10.7605 11.2263 10.7605H10.8008V8.18197ZM13.9559 14.991C13.838 15.2178 13.6516 15.3896 13.3963 15.507C13.1059 15.6403 12.8208 15.7519 12.5405 15.7627C12.26 15.7732 11.7544 15.8183 11.0237 15.8183H10.8008V12.7438H11.3916C11.8921 12.7438 12.2913 12.7536 12.5891 12.7618C12.8869 12.7697 13.121 12.8114 13.2913 12.8806C13.5715 12.9872 13.7818 13.1458 13.9219 13.3538C14.0621 13.5618 14.1322 13.8505 14.1322 14.2185C14.1322 14.5063 14.0733 14.7643 13.9559 14.991Z" fill="#FEFEFE"/>
</svg>
