<svg width="25" height="25" viewBox="0 0 25 25" fill="none" xmlns="http://www.w3.org/2000/svg">
<path d="M12.5 23.85C6.24294 23.85 1.15 18.7571 1.15 12.5C1.15 6.24294 6.24294 1.15 12.5 1.15C18.7571 1.15 23.85 6.24294 23.85 12.5C23.85 18.7571 18.7571 23.85 12.5 23.85Z" stroke="black" stroke-width="2.3"/>
<path d="M13.6671 15.1069L14.5282 14.2455C14.6442 14.1309 14.7909 14.0525 14.9506 14.0197C15.1103 13.9869 15.276 14.0012 15.4277 14.0609L16.4772 14.4801C16.6305 14.5423 16.762 14.6486 16.855 14.7855C16.948 14.9223 16.9985 15.0837 17 15.2492V17.1721C16.9991 17.2847 16.9754 17.3959 16.9304 17.4991C16.8854 17.6024 16.82 17.6954 16.7381 17.7726C16.6563 17.8499 16.5596 17.9098 16.454 17.9486C16.3483 17.9875 16.2359 18.0046 16.1235 17.9989C8.7696 17.5413 7.28574 11.3112 7.00512 8.92684C6.99209 8.80975 7.00399 8.69123 7.04004 8.57907C7.07609 8.46692 7.13547 8.36367 7.21427 8.27611C7.29307 8.18856 7.38951 8.1187 7.49724 8.07111C7.60497 8.02352 7.72155 7.99929 7.83931 8.00002H9.69605C9.86174 8.00051 10.0235 8.05057 10.1605 8.14378C10.2975 8.23699 10.4035 8.36907 10.4649 8.52304L10.8839 9.57292C10.9455 9.72408 10.9612 9.89006 10.9291 10.0501C10.897 10.2102 10.8184 10.3572 10.7032 10.4728L9.84213 11.3343C9.84213 11.3343 10.338 14.6916 13.6671 15.1069Z" fill="black"/>
</svg>
