<svg width="54" height="66" viewBox="0 0 54 66" fill="none" xmlns="http://www.w3.org/2000/svg">
<path fill-rule="evenodd" clip-rule="evenodd" d="M28.3972 57.1301C27.9905 58.1552 27.6553 59 27 59C26.3728 59 26.094 58.2063 25.7492 57.2247C25.2382 55.7701 24.5823 53.903 22.4332 53.595C9.65216 51.7631 0 40.3398 0 26.9897C0 12.0837 12.0883 0 27 0C41.9117 0 54 12.0837 54 26.9897C54 40.32 44.3571 51.5713 31.6235 53.5853C29.6818 53.8924 28.9688 55.6893 28.3972 57.1301ZM29.5 63.5C29.5 64.8807 28.3807 66 27 66C25.6193 66 24.5 64.8807 24.5 63.5C24.5 62.1193 25.6193 61 27 61C28.3807 61 29.5 62.1193 29.5 63.5Z" fill="#FF6928"/>
<path d="M26.9917 38.8228C32.9102 38.8228 37.8076 33.9336 37.8076 28.0151C37.8076 22.0967 32.9019 17.2075 26.9834 17.2075C21.0732 17.2075 16.1841 22.0967 16.1841 28.0151C16.1841 33.9336 21.0815 38.8228 26.9917 38.8228Z" fill="white"/>
</svg>
